<?xml version="1.0" encoding="utf-8" ?>
<svg baseProfile="full" height="512" version="1.1" width="512" xmlns="http://www.w3.org/2000/svg" xmlns:ev="http://www.w3.org/2001/xml-events" xmlns:xlink="http://www.w3.org/1999/xlink"><defs /><path d="M 336,316 L 342,325 L 342,331 L 343,331 L 343,325 L 349,316 L 347,317 L 345,321 L 342,324 L 338,317 Z" fill="black" stroke="none" /><path d="M 319,316 L 319,331 L 320,331 L 320,320 L 321,319 L 331,331 L 331,316 L 330,316 L 330,326 L 329,327 L 324,320 Z" fill="black" stroke="none" /><path d="M 307,316 L 300,329 L 300,331 L 301,331 L 303,327 L 311,327 L 313,330 L 315,331 L 309,317 Z" fill="black" stroke="none" /><path d="M 295,316 L 286,316 L 286,331 L 287,331 L 287,327 L 288,326 L 294,326 L 296,325 L 297,323 L 297,318 Z" fill="black" stroke="none" /><path d="M 263,316 L 264,331 L 266,321 L 271,329 L 277,320 L 279,331 L 279,316 L 272,326 L 269,324 L 265,316 Z" fill="black" stroke="none" /><path d="M 247,316 L 243,319 L 242,325 L 246,330 L 252,331 L 257,327 L 258,325 L 258,321 L 254,316 Z" fill="black" stroke="none" /><path d="M 230,316 L 226,320 L 226,326 L 229,330 L 235,331 L 239,329 L 238,328 L 235,330 L 230,329 L 227,326 L 227,320 L 230,317 L 239,318 L 237,316 Z" fill="black" stroke="none" /><path d="M 206,315 L 203,317 L 202,321 L 204,323 L 210,324 L 211,328 L 210,329 L 202,328 L 202,329 L 206,331 L 210,331 L 213,329 L 214,326 L 212,323 L 206,322 L 204,319 L 206,317 L 211,317 L 212,318 L 213,317 L 210,315 Z" fill="black" stroke="none" /><path d="M 186,316 L 187,330 L 189,330 L 189,325 L 190,324 L 192,324 L 197,330 L 200,330 L 193,322 L 199,315 L 197,315 L 189,323 L 188,322 L 188,315 Z" fill="black" stroke="none" /><path d="M 253,260 L 253,262 L 251,265 L 251,268 L 256,273 L 256,267 L 255,266 L 255,264 L 254,263 L 254,261 Z" fill="black" stroke="none" /><path d="M 227,247 L 203,257 L 198,263 L 194,261 L 187,279 L 216,279 Z" fill="black" stroke="none" /><path d="M 212,213 L 197,252 L 201,255 L 228,244 L 230,241 L 229,237 Z" fill="black" stroke="none" /><path d="M 226,184 L 220,205 L 258,253 L 262,279 L 291,278 L 296,264 L 285,244 L 301,181 L 281,177 L 270,211 L 291,199 L 297,206 L 269,215 L 265,225 L 286,250 L 283,258 L 239,214 L 253,173 Z" fill="black" stroke="none" /></svg>