<?xml version="1.0" encoding="utf-8" ?>
<svg baseProfile="full" height="512" version="1.1" width="512" xmlns="http://www.w3.org/2000/svg" xmlns:ev="http://www.w3.org/2001/xml-events" xmlns:xlink="http://www.w3.org/1999/xlink"><defs /><path d="M 336,316 L 336,317 L 338,319 L 338,320 L 340,322 L 340,323 L 342,325 L 342,331 L 343,331 L 343,325 L 344,324 L 344,323 L 346,321 L 346,320 L 348,318 L 348,317 L 349,316 L 348,316 L 347,317 L 347,318 L 345,320 L 345,321 L 342,324 L 341,323 L 341,322 L 340,321 L 340,320 L 338,318 L 338,317 L 337,316 Z" fill="black" stroke="none" /><path d="M 319,316 L 319,331 L 320,331 L 320,320 L 321,319 L 324,322 L 324,323 L 327,326 L 327,327 L 331,331 L 331,316 L 330,316 L 330,326 L 329,327 L 327,325 L 327,324 L 324,321 L 324,320 L 320,316 Z" fill="black" stroke="none" /><path d="M 307,316 L 306,317 L 306,318 L 305,319 L 305,320 L 304,321 L 304,322 L 303,323 L 303,324 L 302,325 L 302,326 L 301,327 L 301,328 L 300,329 L 300,331 L 301,331 L 301,330 L 302,329 L 302,328 L 303,327 L 311,327 L 313,329 L 313,330 L 314,331 L 315,331 L 315,330 L 314,329 L 314,328 L 313,327 L 313,326 L 312,325 L 312,324 L 311,323 L 311,321 L 310,320 L 310,319 L 309,318 L 309,317 L 308,316 Z" fill="black" stroke="none" /><path d="M 286,316 L 286,331 L 287,331 L 287,327 L 288,326 L 294,326 L 295,325 L 296,325 L 296,324 L 297,323 L 297,318 L 295,316 Z" fill="black" stroke="none" /><path d="M 263,316 L 263,330 L 264,331 L 265,330 L 265,322 L 266,321 L 267,322 L 267,323 L 269,325 L 269,326 L 270,327 L 270,328 L 271,329 L 272,328 L 272,327 L 274,325 L 274,324 L 275,323 L 275,322 L 277,320 L 278,321 L 278,331 L 279,331 L 279,316 L 278,316 L 278,317 L 276,319 L 276,320 L 274,322 L 274,323 L 273,324 L 273,325 L 272,326 L 271,326 L 269,324 L 269,323 L 268,322 L 268,321 L 266,319 L 266,318 L 265,317 L 265,316 Z" fill="black" stroke="none" /><path d="M 247,316 L 246,317 L 245,317 L 243,319 L 243,321 L 242,322 L 242,325 L 243,326 L 243,327 L 246,330 L 248,330 L 249,331 L 252,331 L 253,330 L 254,330 L 257,327 L 257,326 L 258,325 L 258,321 L 257,320 L 257,319 L 254,316 Z" fill="black" stroke="none" /><path d="M 230,316 L 229,317 L 228,317 L 227,318 L 227,319 L 226,320 L 226,326 L 227,327 L 227,328 L 229,330 L 231,330 L 232,331 L 235,331 L 236,330 L 237,330 L 238,329 L 239,329 L 238,328 L 237,329 L 236,329 L 235,330 L 232,330 L 231,329 L 230,329 L 227,326 L 227,320 L 230,317 L 236,317 L 237,318 L 239,318 L 237,316 Z" fill="black" stroke="none" /><path d="M 206,315 L 205,316 L 204,316 L 203,317 L 203,318 L 202,319 L 202,321 L 204,323 L 206,323 L 207,324 L 210,324 L 211,325 L 211,328 L 210,329 L 205,329 L 204,328 L 202,328 L 202,329 L 203,330 L 205,330 L 206,331 L 210,331 L 211,330 L 212,330 L 213,329 L 213,328 L 214,327 L 214,326 L 213,325 L 213,324 L 212,323 L 210,323 L 209,322 L 206,322 L 204,320 L 204,319 L 206,317 L 211,317 L 212,318 L 213,317 L 212,316 L 211,316 L 210,315 Z" fill="black" stroke="none" /><path d="M 187,315 L 186,316 L 186,325 L 187,326 L 187,330 L 189,330 L 189,325 L 190,324 L 192,324 L 195,327 L 195,328 L 197,330 L 200,330 L 196,326 L 196,325 L 193,322 L 199,316 L 199,315 L 197,315 L 189,323 L 188,322 L 188,315 Z" fill="black" stroke="none" /><path d="M 253,260 L 253,262 L 252,263 L 252,264 L 251,265 L 251,268 L 256,273 L 256,267 L 255,266 L 255,264 L 254,263 L 254,261 Z" fill="black" stroke="none" /><path d="M 227,247 L 226,248 L 225,248 L 224,249 L 222,249 L 221,250 L 220,250 L 219,251 L 217,251 L 216,252 L 215,252 L 214,253 L 213,253 L 212,254 L 210,254 L 209,255 L 208,255 L 207,256 L 206,256 L 205,257 L 203,257 L 202,258 L 202,260 L 200,262 L 199,262 L 198,263 L 197,263 L 196,262 L 195,262 L 194,261 L 194,262 L 193,263 L 193,265 L 192,266 L 192,268 L 191,269 L 191,270 L 190,271 L 190,273 L 189,274 L 189,276 L 188,277 L 188,278 L 187,279 L 216,279 L 216,278 L 217,277 L 217,275 L 218,274 L 218,272 L 219,271 L 219,270 L 220,269 L 220,267 L 221,266 L 221,264 L 222,263 L 222,261 L 223,260 L 223,258 L 224,257 L 224,256 L 225,255 L 225,253 L 226,252 L 226,250 L 227,249 Z" fill="black" stroke="none" /><path d="M 212,213 L 211,214 L 211,215 L 210,216 L 210,218 L 209,219 L 209,221 L 208,222 L 208,223 L 207,224 L 207,226 L 206,227 L 206,229 L 205,230 L 205,232 L 204,233 L 204,235 L 203,236 L 203,237 L 202,238 L 202,240 L 201,241 L 201,243 L 200,244 L 200,245 L 199,246 L 199,248 L 198,249 L 198,251 L 197,252 L 197,253 L 199,253 L 201,255 L 202,254 L 203,254 L 204,253 L 206,253 L 207,252 L 208,252 L 209,251 L 210,251 L 211,250 L 213,250 L 214,249 L 215,249 L 216,248 L 218,248 L 219,247 L 220,247 L 221,246 L 223,246 L 224,245 L 225,245 L 226,244 L 228,244 L 229,243 L 229,242 L 230,241 L 230,239 L 229,238 L 229,237 L 227,235 L 227,234 L 224,231 L 224,230 L 222,228 L 222,227 L 219,224 L 219,223 L 216,220 L 216,219 L 214,217 L 214,216 L 212,214 Z" fill="black" stroke="none" /><path d="M 252,173 L 251,174 L 249,174 L 248,175 L 247,175 L 246,176 L 245,176 L 244,177 L 242,177 L 241,178 L 240,178 L 239,179 L 237,179 L 236,180 L 235,180 L 234,181 L 232,181 L 231,182 L 230,182 L 229,183 L 228,183 L 227,184 L 226,184 L 221,189 L 221,190 L 220,191 L 220,193 L 219,194 L 219,201 L 220,202 L 220,205 L 221,206 L 221,207 L 222,208 L 222,209 L 223,210 L 223,211 L 225,213 L 225,214 L 230,219 L 230,220 L 236,226 L 236,227 L 244,235 L 244,236 L 250,242 L 250,243 L 254,247 L 254,248 L 256,250 L 256,251 L 258,253 L 258,254 L 259,255 L 259,256 L 260,257 L 260,258 L 261,259 L 261,261 L 262,262 L 262,265 L 263,266 L 263,275 L 262,276 L 262,279 L 289,279 L 290,278 L 291,278 L 294,275 L 294,274 L 295,273 L 295,271 L 296,270 L 296,264 L 295,263 L 295,261 L 293,259 L 293,258 L 289,254 L 289,253 L 286,250 L 286,249 L 285,248 L 285,244 L 286,243 L 286,241 L 287,240 L 287,238 L 288,237 L 288,235 L 289,234 L 289,232 L 290,231 L 290,229 L 291,228 L 291,226 L 292,225 L 292,224 L 293,223 L 293,221 L 294,220 L 294,218 L 295,217 L 295,215 L 296,214 L 296,212 L 297,211 L 297,209 L 298,208 L 298,206 L 299,205 L 299,203 L 300,202 L 300,200 L 301,199 L 301,197 L 302,196 L 302,194 L 303,193 L 303,186 L 302,185 L 302,183 L 301,182 L 301,181 L 297,177 L 296,177 L 295,176 L 293,176 L 292,175 L 286,175 L 285,176 L 283,176 L 282,177 L 281,177 L 281,179 L 280,180 L 280,182 L 279,183 L 279,185 L 278,186 L 278,189 L 277,190 L 277,191 L 276,192 L 276,194 L 275,195 L 275,197 L 274,198 L 274,200 L 273,201 L 273,203 L 272,204 L 272,206 L 271,207 L 271,209 L 270,210 L 270,211 L 271,211 L 272,210 L 273,210 L 274,209 L 276,209 L 277,208 L 279,208 L 280,207 L 281,207 L 282,206 L 284,206 L 285,205 L 286,205 L 287,204 L 287,203 L 288,202 L 288,201 L 289,200 L 290,200 L 291,199 L 294,199 L 297,202 L 297,206 L 295,208 L 294,208 L 293,209 L 291,209 L 290,208 L 286,208 L 285,209 L 284,209 L 283,210 L 281,210 L 280,211 L 279,211 L 278,212 L 277,212 L 276,213 L 274,213 L 273,214 L 272,214 L 271,215 L 269,215 L 268,216 L 268,218 L 267,219 L 267,221 L 266,222 L 266,224 L 265,225 L 265,230 L 266,231 L 266,232 L 267,233 L 267,234 L 271,238 L 271,239 L 276,244 L 276,245 L 278,247 L 282,247 L 283,248 L 284,248 L 286,250 L 286,251 L 287,252 L 287,253 L 286,254 L 286,255 L 283,258 L 280,258 L 279,257 L 278,257 L 276,255 L 276,253 L 275,252 L 276,251 L 276,249 L 275,248 L 274,248 L 272,246 L 271,246 L 270,245 L 269,245 L 267,243 L 266,243 L 262,239 L 261,239 L 255,233 L 254,233 L 249,228 L 249,227 L 245,223 L 245,222 L 242,219 L 242,218 L 240,216 L 240,215 L 239,214 L 239,211 L 240,210 L 240,208 L 241,207 L 241,205 L 242,204 L 242,202 L 243,201 L 243,200 L 244,199 L 244,197 L 245,196 L 245,194 L 246,193 L 246,191 L 247,190 L 247,188 L 248,187 L 248,185 L 249,184 L 249,183 L 250,182 L 250,180 L 251,179 L 251,177 L 252,176 L 252,174 L 253,173 Z" fill="black" stroke="none" /></svg>