<svg width="1260" height="383" viewBox="0 0 1260 383" fill="none" xmlns="http://www.w3.org/2000/svg">
<g clip-path="url(#clip0_308_388)">
<mask id="path-1-inside-1_308_388" fill="white">
<path d="M0 0H1260V383H0V0Z"/>
</mask>
<path d="M1201.21 154.667C1215.68 154.667 1227.41 166.398 1227.41 180.869C1227.41 195.34 1215.68 207.072 1201.21 207.072C1186.74 207.071 1175.01 195.34 1175.01 180.869C1175.01 166.398 1186.74 154.667 1201.21 154.667ZM1201.21 163.277C1191.49 163.277 1183.62 171.153 1183.62 180.869C1183.62 190.586 1191.49 198.462 1201.21 198.462C1210.93 198.462 1218.8 190.586 1218.8 180.869C1218.8 171.153 1210.93 163.277 1201.21 163.277Z" fill="#D9D9D9"/>
<circle cx="1135.78" cy="149.797" r="5.55811" fill="#A2ADB3"/>
<circle cx="1135.78" cy="172.913" r="5.55811" fill="#A2ADB3"/>
<circle cx="1135.78" cy="196.03" r="5.55811" fill="#A2ADB3"/>
<circle cx="1135.78" cy="219.146" r="5.55811" fill="#A2ADB3"/>
<circle cx="1135.78" cy="242.262" r="5.55811" fill="#A2ADB3"/>
<circle cx="1135.78" cy="265.378" r="5.55811" fill="#A2ADB3"/>
<circle cx="1135.78" cy="288.495" r="5.55811" fill="#A2ADB3"/>
<circle cx="1154.77" cy="177.5" r="7.89819" fill="#E1C1B8"/>
<circle cx="1154.77" cy="210.349" r="7.89819" fill="#E1C1B8"/>
<circle cx="1154.77" cy="243.197" r="7.89819" fill="#E1C1B8"/>
<circle cx="1154.77" cy="276.046" r="7.89819" fill="#E1C1B8"/>
<circle cx="1154.77" cy="308.894" r="7.89819" fill="#E1C1B8"/>
<circle cx="1154.77" cy="341.743" r="7.89819" fill="#E1C1B8"/>
<circle cx="1154.77" cy="374.592" r="7.89819" fill="#E1C1B8"/>
<path d="M1130.51 62.5814C1108.11 43.7804 1037.88 -1.94848 990 -1.94848L1262.69 -16.5198V155.213C1211.69 146.886 1149.32 78.373 1130.51 62.5814Z" fill="#A2ADB3"/>
<rect x="1148.51" y="47.9938" width="209.295" height="37.4715" rx="18.7357" transform="rotate(-45 1148.51 47.9938)" fill="#E4C5BE"/>
<path d="M1047.89 -50.4659C1079.86 -50.4659 1105.78 -24.547 1105.78 7.42566C1105.78 39.3984 1079.86 65.3173 1047.89 65.3173C1015.92 65.3172 990 39.3983 990 7.42566C990 -24.547 1015.92 -50.4659 1047.89 -50.4659ZM1047.89 -31.4445C1026.42 -31.4443 1009.02 -14.0416 1009.02 7.42566C1009.02 28.893 1026.42 46.2956 1047.89 46.2958C1069.36 46.2958 1086.76 28.8931 1086.76 7.42566C1086.76 -14.0418 1069.36 -31.4445 1047.89 -31.4445Z" fill="#D9D9D9"/>
<circle cx="253.647" cy="245.906" r="5.55811" transform="rotate(180 253.647 245.906)" fill="#E3C1B8"/>
<circle cx="253.647" cy="224.79" r="5.55811" transform="rotate(180 253.647 224.79)" fill="#E3C1B8"/>
<circle cx="253.647" cy="203.674" r="5.55811" transform="rotate(180 253.647 203.674)" fill="#E3C1B8"/>
<circle cx="253.647" cy="182.558" r="5.55811" transform="rotate(180 253.647 182.558)" fill="#E3C1B8"/>
<circle cx="253.647" cy="161.441" r="5.55811" transform="rotate(180 253.647 161.441)" fill="#E3C1B8"/>
<circle cx="253.647" cy="140.325" r="5.55811" transform="rotate(180 253.647 140.325)" fill="#E3C1B8"/>
<circle cx="253.647" cy="119.209" r="5.55811" transform="rotate(180 253.647 119.209)" fill="#E3C1B8"/>
<circle cx="228.867" cy="205.172" r="7.89819" transform="rotate(180 228.867 205.172)" fill="#9F8783"/>
<circle cx="228.867" cy="175.376" r="7.89819" transform="rotate(180 228.867 175.376)" fill="#9F8783"/>
<circle cx="228.867" cy="145.58" r="7.89819" transform="rotate(180 228.867 145.58)" fill="#9F8783"/>
<circle cx="228.867" cy="115.783" r="7.89819" transform="rotate(180 228.867 115.783)" fill="#9F8783"/>
<circle cx="228.867" cy="85.9868" r="7.89819" transform="rotate(180 228.867 85.9868)" fill="#9F8783"/>
<circle cx="228.867" cy="56.1904" r="7.89819" transform="rotate(180 228.867 56.1904)" fill="#9F8783"/>
<rect x="-62" y="368.728" width="282.021" height="50.4921" rx="25.246" transform="rotate(-45 -62 368.728)" fill="#E4C5BE"/>
<path d="M255.422 -7.62614C256.257 -8.54116 256.192 -9.96186 255.263 -10.7806C230.264 -32.8035 197.666 -44.2905 164.327 -42.7627C130.24 -41.2007 98.1689 -26.1615 75.1702 -0.953667C52.1714 24.2542 40.1283 57.5658 41.6904 91.653C43.2181 124.993 57.6382 156.403 81.8552 179.283C82.7556 180.134 84.1762 180.068 85.011 179.153L255.422 -7.62614Z" fill="#E1D6D2"/>
<path d="M352.198 323.732C375.285 323.733 394 342.449 394 365.535C394 388.622 375.285 407.337 352.198 407.337C329.112 407.337 310.396 388.622 310.396 365.535C310.396 342.448 329.111 323.732 352.198 323.732ZM352.197 337.468C336.696 337.468 324.13 350.034 324.13 365.535C324.13 381.036 336.696 393.602 352.197 393.603C367.698 393.603 380.264 381.036 380.265 365.535C380.265 350.034 367.698 337.468 352.197 337.468Z" fill="#D9D9D9"/>
</g>
<path d="M1260 383V382H0V383V384H1260V383Z" fill="#D9D9D9" mask="url(#path-1-inside-1_308_388)"/>
<defs>
<clipPath id="clip0_308_388">
<path d="M0 0H1260V383H0V0Z" fill="white"/>
</clipPath>
</defs>
</svg>
