<svg width="21" height="20" viewBox="0 0 21 20" fill="none" xmlns="http://www.w3.org/2000/svg">
<path d="M20.4047 10.2273C20.4047 9.51816 20.3411 8.83636 20.2229 8.18176H10.8047V12.05H16.1865C15.9547 13.3 15.2502 14.3591 14.1911 15.0682V17.5773H17.4229C19.3138 15.8364 20.4047 13.2727 20.4047 10.2273Z" fill="#4285F4"/>
<path d="M10.8055 20C13.5055 20 15.7691 19.1045 17.4236 17.5773L14.1918 15.0682C13.2964 15.6682 12.1509 16.0227 10.8055 16.0227C8.20094 16.0227 5.99644 14.2636 5.21004 11.9H1.86914V14.4909C3.51464 17.7591 6.89644 20 10.8055 20Z" fill="#34A853"/>
<path d="M5.20919 11.9001C5.00919 11.3001 4.89559 10.6592 4.89559 10.0001C4.89559 9.34096 5.00919 8.70006 5.20919 8.10006V5.50916H1.86829C1.19109 6.85916 0.804688 8.38646 0.804688 10.0001C0.804688 11.6137 1.19109 13.141 1.86829 14.491L5.20919 11.9001Z" fill="#FBBC04"/>
<path d="M10.8055 3.9773C12.2736 3.9773 13.5918 4.4818 14.6282 5.4727L17.4964 2.6045C15.7646 0.9909 13.5009 0 10.8055 0C6.89644 0 3.51464 2.2409 1.86914 5.5091L5.21004 8.1C5.99644 5.7364 8.20094 3.9773 10.8055 3.9773Z" fill="#E94235"/>
</svg>
