<svg width="20" height="21" viewBox="0 0 20 21" fill="none" xmlns="http://www.w3.org/2000/svg">
<path d="M9.93452 0.856445C5.6689 0.856445 2.02671 3.6127 0.681396 7.41895H19.2533C17.8751 3.6127 14.233 0.856445 9.93452 0.856445Z" fill="#F2B200"/>
<path d="M9.93452 20.5439C14.233 20.5439 17.8751 17.8205 19.2205 13.9814H0.681396C2.02671 17.8205 5.6689 20.5439 9.93452 20.5439Z" fill="#83BF4F"/>
<path d="M0.681348 7.41895C0.32041 8.43613 0.123535 9.55176 0.123535 10.7002C0.123535 11.8486 0.32041 12.9643 0.681348 13.9814H19.2532C19.6142 12.9643 19.811 11.8486 19.811 10.7002C19.811 9.55176 19.6142 8.43613 19.2532 7.41895H0.681348Z" fill="white"/>
<path d="M9.93457 13.3252C11.3843 13.3252 12.5596 12.1499 12.5596 10.7002C12.5596 9.25045 11.3843 8.0752 9.93457 8.0752C8.48482 8.0752 7.30957 9.25045 7.30957 10.7002C7.30957 12.1499 8.48482 13.3252 9.93457 13.3252Z" fill="#428BC1"/>
<path d="M9.93457 12.9971C11.2031 12.9971 12.2314 11.9687 12.2314 10.7002C12.2314 9.43167 11.2031 8.40332 9.93457 8.40332C8.66604 8.40332 7.6377 9.43167 7.6377 10.7002C7.6377 11.9687 8.66604 12.9971 9.93457 12.9971Z" fill="white"/>
<path d="M9.0813 8.73145C9.17191 8.73145 9.24536 8.65799 9.24536 8.56738C9.24536 8.47677 9.17191 8.40332 9.0813 8.40332C8.99069 8.40332 8.91724 8.47677 8.91724 8.56738C8.91724 8.65799 8.99069 8.73145 9.0813 8.73145Z" fill="#428BC1"/>
<path d="M8.5564 9.02686C8.64701 9.02686 8.72046 8.9534 8.72046 8.86279C8.72046 8.77218 8.64701 8.69873 8.5564 8.69873C8.46579 8.69873 8.39233 8.77218 8.39233 8.86279C8.39233 8.9534 8.46579 9.02686 8.5564 9.02686Z" fill="#428BC1"/>
<path d="M8.12988 9.45361C8.22049 9.45361 8.29395 9.38016 8.29395 9.28955C8.29395 9.19894 8.22049 9.12549 8.12988 9.12549C8.03927 9.12549 7.96582 9.19894 7.96582 9.28955C7.96582 9.38016 8.03927 9.45361 8.12988 9.45361Z" fill="#428BC1"/>
<path d="M7.83447 9.97852C7.92508 9.97852 7.99854 9.90506 7.99854 9.81445C7.99854 9.72384 7.92508 9.65039 7.83447 9.65039C7.74386 9.65039 7.67041 9.72384 7.67041 9.81445C7.67041 9.90506 7.74386 9.97852 7.83447 9.97852Z" fill="#428BC1"/>
<path d="M7.67041 10.5693C7.76102 10.5693 7.83447 10.4959 7.83447 10.4053C7.83447 10.3147 7.76102 10.2412 7.67041 10.2412C7.5798 10.2412 7.50635 10.3147 7.50635 10.4053C7.50635 10.4959 7.5798 10.5693 7.67041 10.5693Z" fill="#428BC1"/>
<path d="M7.67041 11.1597C7.76102 11.1597 7.83447 11.0862 7.83447 10.9956C7.83447 10.905 7.76102 10.8315 7.67041 10.8315C7.5798 10.8315 7.50635 10.905 7.50635 10.9956C7.50635 11.0862 7.5798 11.1597 7.67041 11.1597Z" fill="#428BC1"/>
<path d="M7.83447 11.7505C7.92508 11.7505 7.99854 11.677 7.99854 11.5864C7.99854 11.4958 7.92508 11.4224 7.83447 11.4224C7.74386 11.4224 7.67041 11.4958 7.67041 11.5864C7.67041 11.677 7.74386 11.7505 7.83447 11.7505Z" fill="#428BC1"/>
<path d="M8.12988 12.2754C8.22049 12.2754 8.29395 12.2019 8.29395 12.1113C8.29395 12.0207 8.22049 11.9473 8.12988 11.9473C8.03927 11.9473 7.96582 12.0207 7.96582 12.1113C7.96582 12.2019 8.03927 12.2754 8.12988 12.2754Z" fill="#428BC1"/>
<path d="M8.5564 12.7021C8.64701 12.7021 8.72046 12.6287 8.72046 12.5381C8.72046 12.4475 8.64701 12.374 8.5564 12.374C8.46579 12.374 8.39233 12.4475 8.39233 12.5381C8.39233 12.6287 8.46579 12.7021 8.5564 12.7021Z" fill="#428BC1"/>
<path d="M9.0813 12.9971C9.17191 12.9971 9.24536 12.9236 9.24536 12.833C9.24536 12.7424 9.17191 12.6689 9.0813 12.6689C8.99069 12.6689 8.91724 12.7424 8.91724 12.833C8.91724 12.9236 8.99069 12.9971 9.0813 12.9971Z" fill="#428BC1"/>
<path d="M9.63916 13.1284C9.72977 13.1284 9.80322 13.055 9.80322 12.9644C9.80322 12.8737 9.72977 12.8003 9.63916 12.8003C9.54855 12.8003 9.4751 12.8737 9.4751 12.9644C9.4751 13.055 9.54855 13.1284 9.63916 13.1284Z" fill="#428BC1"/>
<path d="M10.0986 12.9972C10.0986 12.8987 10.1643 12.8331 10.2299 12.8003C10.3283 12.8003 10.3939 12.8659 10.4268 12.9315C10.4268 13.03 10.3611 13.0956 10.2955 13.1284C10.1643 13.1612 10.0986 13.0956 10.0986 12.9972Z" fill="#428BC1"/>
<path d="M10.8203 12.9971C10.9109 12.9971 10.9844 12.9236 10.9844 12.833C10.9844 12.7424 10.9109 12.6689 10.8203 12.6689C10.7297 12.6689 10.6562 12.7424 10.6562 12.833C10.6562 12.9236 10.7297 12.9971 10.8203 12.9971Z" fill="#428BC1"/>
<path d="M11.3455 12.7021C11.4361 12.7021 11.5095 12.6287 11.5095 12.5381C11.5095 12.4475 11.4361 12.374 11.3455 12.374C11.2548 12.374 11.1814 12.4475 11.1814 12.5381C11.1814 12.6287 11.2548 12.7021 11.3455 12.7021Z" fill="#428BC1"/>
<path d="M11.772 12.2754C11.8626 12.2754 11.936 12.2019 11.936 12.1113C11.936 12.0207 11.8626 11.9473 11.772 11.9473C11.6814 11.9473 11.6079 12.0207 11.6079 12.1113C11.6079 12.2019 11.6814 12.2754 11.772 12.2754Z" fill="#428BC1"/>
<path d="M12.0674 11.7505C12.158 11.7505 12.2314 11.677 12.2314 11.5864C12.2314 11.4958 12.158 11.4224 12.0674 11.4224C11.9768 11.4224 11.9033 11.4958 11.9033 11.5864C11.9033 11.677 11.9768 11.7505 12.0674 11.7505Z" fill="#428BC1"/>
<path d="M12.2314 11.1597C12.3221 11.1597 12.3955 11.0862 12.3955 10.9956C12.3955 10.905 12.3221 10.8315 12.2314 10.8315C12.1408 10.8315 12.0674 10.905 12.0674 10.9956C12.0674 11.0862 12.1408 11.1597 12.2314 11.1597Z" fill="#428BC1"/>
<path d="M12.2313 10.5693C12.1329 10.5693 12.0672 10.5037 12.0344 10.4381C12.0344 10.3396 12.1 10.274 12.1657 10.2412C12.2641 10.2412 12.3297 10.3068 12.3625 10.3725C12.3954 10.4709 12.3297 10.5365 12.2313 10.5693Z" fill="#428BC1"/>
<path d="M12.0674 9.97852C12.158 9.97852 12.2314 9.90506 12.2314 9.81445C12.2314 9.72384 12.158 9.65039 12.0674 9.65039C11.9768 9.65039 11.9033 9.72384 11.9033 9.81445C11.9033 9.90506 11.9768 9.97852 12.0674 9.97852Z" fill="#428BC1"/>
<path d="M11.772 9.45361C11.8626 9.45361 11.936 9.38016 11.936 9.28955C11.936 9.19894 11.8626 9.12549 11.772 9.12549C11.6814 9.12549 11.6079 9.19894 11.6079 9.28955C11.6079 9.38016 11.6814 9.45361 11.772 9.45361Z" fill="#428BC1"/>
<path d="M11.3455 9.02686C11.4361 9.02686 11.5095 8.9534 11.5095 8.86279C11.5095 8.77218 11.4361 8.69873 11.3455 8.69873C11.2548 8.69873 11.1814 8.77218 11.1814 8.86279C11.1814 8.9534 11.2548 9.02686 11.3455 9.02686Z" fill="#428BC1"/>
<path d="M10.9845 8.63311C10.9517 8.73154 10.8532 8.76436 10.7548 8.73154C10.6563 8.69873 10.6235 8.60029 10.6563 8.50186C10.6892 8.40342 10.7876 8.37061 10.886 8.40342C10.9845 8.46904 11.0173 8.56748 10.9845 8.63311Z" fill="#428BC1"/>
<path d="M10.3938 8.43637C10.3938 8.53481 10.2954 8.60043 10.1969 8.56762C10.0985 8.56762 10.0329 8.46918 10.0657 8.37074C10.0657 8.2723 10.1641 8.20668 10.2625 8.23949C10.361 8.27231 10.4266 8.37074 10.3938 8.43637Z" fill="#428BC1"/>
<path d="M9.80322 8.40346C9.80322 8.50189 9.7376 8.56752 9.67197 8.60033C9.57354 8.60033 9.50791 8.53471 9.4751 8.46908C9.4751 8.37065 9.54072 8.30502 9.60635 8.27221C9.70479 8.23939 9.80322 8.30502 9.80322 8.40346Z" fill="#428BC1"/>
<path d="M9.93457 11.1924C10.2064 11.1924 10.4268 10.972 10.4268 10.7002C10.4268 10.4284 10.2064 10.208 9.93457 10.208C9.66274 10.208 9.44238 10.4284 9.44238 10.7002C9.44238 10.972 9.66274 11.1924 9.93457 11.1924Z" fill="#428BC1"/>
<path d="M9.93452 8.40332L9.8689 9.81426L9.93452 10.7002L10.033 9.81426L9.93452 8.40332Z" fill="#428BC1"/>
<path d="M9.34375 8.46924L9.63906 9.88018L9.93437 10.7005L9.80312 9.81455L9.34375 8.46924Z" fill="#428BC1"/>
<path d="M8.78613 8.69873L9.44238 9.97842L9.93457 10.7003L9.57363 9.87998L8.78613 8.69873Z" fill="#428BC1"/>
<path d="M8.32666 9.05957L9.27822 10.1424L9.93447 10.7002L9.37666 10.0111L8.32666 9.05957Z" fill="#428BC1"/>
<path d="M7.96582 9.55176L9.14707 10.3393L9.93457 10.7002L9.2127 10.1752L7.96582 9.55176Z" fill="#428BC1"/>
<path d="M7.73608 10.1099L9.0814 10.5364L9.93452 10.7005L9.11421 10.4052L7.73608 10.1099Z" fill="#428BC1"/>
<path d="M7.6377 10.7004L9.08145 10.766L9.93457 10.7004L9.08145 10.6348L7.6377 10.7004Z" fill="#428BC1"/>
<path d="M7.73608 11.2908L9.11421 10.9955L9.93452 10.7002L9.0814 10.8643L7.73608 11.2908Z" fill="#428BC1"/>
<path d="M7.96582 11.8486L9.2127 11.2252L9.93457 10.7002L9.14707 11.0611L7.96582 11.8486Z" fill="#428BC1"/>
<path d="M8.32666 12.308L9.37666 11.3893L9.93447 10.7002L9.27822 11.258L8.32666 12.308Z" fill="#428BC1"/>
<path d="M8.78613 12.7018L9.57363 11.4877L9.93457 10.7002L9.44238 11.4221L8.78613 12.7018Z" fill="#428BC1"/>
<path d="M9.34375 12.9314L9.80312 11.5861L9.93437 10.7002L9.63906 11.5205L9.34375 12.9314Z" fill="#428BC1"/>
<path d="M9.93452 12.9971L10.033 11.5861L9.93452 10.7002L9.8689 11.5861L9.93452 12.9971Z" fill="#428BC1"/>
<path d="M10.5252 12.9314L10.2627 11.5205L9.93457 10.7002L10.0986 11.5861L10.5252 12.9314Z" fill="#428BC1"/>
<path d="M11.083 12.7018L10.4596 11.4221L9.93457 10.7002L10.3283 11.5205L11.083 12.7018Z" fill="#428BC1"/>
<path d="M11.5752 12.308L10.6236 11.258L9.93457 10.7002L10.5252 11.3893L11.5752 12.308Z" fill="#428BC1"/>
<path d="M11.9361 11.8486L10.7549 11.0611L9.93457 10.7002L10.6564 11.2252L11.9361 11.8486Z" fill="#428BC1"/>
<path d="M12.1658 11.2908L10.8205 10.8643L9.93457 10.7002L10.7877 10.9955L12.1658 11.2908Z" fill="#428BC1"/>
<path d="M12.2314 10.7005L10.8205 10.6021L9.93457 10.7005L10.8205 10.7661L12.2314 10.7005Z" fill="#428BC1"/>
<path d="M12.1658 10.1099L10.7877 10.4052L9.93457 10.7005L10.8205 10.5364L12.1658 10.1099Z" fill="#428BC1"/>
<path d="M11.9361 9.55176L10.6564 10.1752L9.93457 10.7002L10.7549 10.3393L11.9361 9.55176Z" fill="#428BC1"/>
<path d="M11.5752 9.09277L10.5252 10.0115L9.93457 10.7006L10.6236 10.1428L11.5752 9.09277Z" fill="#428BC1"/>
<path d="M11.083 8.69873L10.3283 9.91279L9.93457 10.7003L10.4596 9.97842L11.083 8.69873Z" fill="#428BC1"/>
<path d="M10.558 8.46924L10.0986 9.81455L9.93457 10.7005L10.2627 9.88018L10.558 8.46924Z" fill="#428BC1"/>
</svg>
