<svg width="32" height="29" viewBox="0 0 32 29" fill="none" xmlns="http://www.w3.org/2000/svg">
<path d="M23.7587 20.4233L31.349 15.9389C31.7514 15.7007 32 15.259 32 14.7849V5.81619C32 5.34208 31.7514 4.90035 31.349 4.66215L23.7587 0.177791C23.3564 -0.0604186 22.8568 -0.0581059 22.4567 0.177791L14.8664 4.66215C14.4641 4.90035 14.2154 5.34208 14.2154 5.81619V21.8433L8.89228 24.9863L3.56912 21.8433V15.555L8.89228 12.4121L12.4026 14.4866V10.2682L9.54326 8.57757C9.34661 8.46194 9.12058 8.39949 8.89228 8.39949C8.66398 8.39949 8.43794 8.46194 8.24129 8.57757L0.650985 13.0619C0.24864 13.3001 0 13.7419 0 14.216V23.1847C0 23.6588 0.24864 24.1005 0.650985 24.3387L8.24129 28.8231C8.64364 29.059 9.14092 29.059 9.54326 28.8231L17.1336 24.3387C17.5359 24.1005 17.7846 23.6588 17.7846 23.1847V7.15756L17.8795 7.10206L23.1055 4.01458L28.4286 7.15756V13.4458L23.1055 16.5888L19.5996 14.5189V18.7373L22.4545 20.4233C22.8568 20.6592 23.3564 20.6592 23.7564 20.4233H23.7587Z" fill="white"/>
</svg>
