<svg width="32" height="30" viewBox="0 0 32 30" fill="none" xmlns="http://www.w3.org/2000/svg">
<path d="M23.7587 20.9233L31.349 16.4389C31.7514 16.2007 32 15.759 32 15.2849V6.31619C32 5.84208 31.7514 5.40035 31.349 5.16215L23.7587 0.677791C23.3564 0.439581 22.8568 0.441894 22.4567 0.677791L14.8664 5.16215C14.4641 5.40035 14.2154 5.84208 14.2154 6.31619V22.3433L8.89228 25.4863L3.56912 22.3433V16.055L8.89228 12.9121L12.4026 14.9866V10.7682L9.54326 9.07757C9.34661 8.96194 9.12058 8.89949 8.89228 8.89949C8.66398 8.89949 8.43794 8.96194 8.24129 9.07757L0.650985 13.5619C0.24864 13.8001 0 14.2419 0 14.716V23.6847C0 24.1588 0.24864 24.6005 0.650985 24.8387L8.24129 29.3231C8.64364 29.559 9.14092 29.559 9.54326 29.3231L17.1336 24.8387C17.5359 24.6005 17.7846 24.1588 17.7846 23.6847V7.65756L17.8795 7.60206L23.1055 4.51458L28.4286 7.65756V13.9458L23.1055 17.0888L19.5996 15.0189V19.2373L22.4545 20.9233C22.8568 21.1592 23.3564 21.1592 23.7564 20.9233H23.7587Z" fill="url(#paint0_linear_607_26)"/>
<defs>
<linearGradient id="paint0_linear_607_26" x1="-4.85847e-08" y1="9" x2="31.6273" y2="16.5592" gradientUnits="userSpaceOnUse">
<stop offset="0.0721154" stop-color="#1070FF"/>
<stop offset="0.206731" stop-color="#BA8CFF"/>
<stop offset="0.375" stop-color="#A76CFF" stop-opacity="0.8"/>
<stop offset="0.509615" stop-color="#FFBEE6"/>
<stop offset="0.75" stop-color="#FF9C4B"/>
<stop offset="0.83" stop-color="#FFC18E"/>
<stop offset="1" stop-color="#FF7A00"/>
</linearGradient>
</defs>
</svg>
