<svg width="44" height="49" viewBox="0 0 44 49" fill="none" xmlns="http://www.w3.org/2000/svg">
<path d="M5.18978 24.4971C5.19474 20.3351 6.77847 16.3301 9.62127 13.2903C12.4641 10.2506 16.3543 8.40262 20.5065 8.11941L24.5241 3.0938C19.1833 2.36406 13.7625 3.65772 9.32672 6.72067C4.89094 9.78361 1.76074 14.3945 0.551003 19.6475C-0.658732 24.9004 0.139428 30.4162 2.78868 35.1107C5.43798 39.8052 9.74684 43.3398 14.869 45.0194L16.4002 40.0659C13.1376 38.9699 10.301 36.8782 8.28984 34.0853C6.27874 31.2922 5.19447 27.9386 5.18978 24.4971Z" fill="#1E1E1E"/>
<path d="M28.3266 3.93945L26.8098 8.90265C30.4478 10.0912 33.5561 12.5135 35.5973 15.7507C37.6387 18.9878 38.4849 22.8367 37.9897 26.6317C37.4943 30.4265 35.6886 33.9291 32.8846 36.5342C30.0808 39.1388 26.4551 40.6819 22.6338 40.8971L18.6522 45.8889C24.0146 46.6637 29.4723 45.3951 33.9431 42.3344C38.4138 39.2736 41.571 34.6446 42.7886 29.365C44.0063 24.0855 43.195 18.5413 40.5163 13.8317C37.8375 9.12219 33.4869 5.59135 28.3266 3.93945Z" fill="#1E1E1E"/>
<path d="M27.8858 20.4704L22.1644 19.7672L28.0538 0.5L11.2179 21.5527L15.2907 28.28L21.0123 28.9832L14.9787 48.5L31.9586 27.2L27.8858 20.4704Z" fill="#FF7A00"/>
</svg>
