<svg width="48" height="35" viewBox="0 0 48 35" fill="none" xmlns="http://www.w3.org/2000/svg">
<path d="M0.238806 4.82759V0H16V15.4853C16 15.9993 16.3896 16.4296 16.9011 16.4804L28.3234 17.6154C29.929 17.7749 31.4302 18.4842 32.5729 19.6233L48 35H33.2684C31.6906 35 30.1764 34.3785 29.0535 33.2701L0.238806 4.82759Z" fill="url(#paint0_linear_513_34)"/>
<path d="M30.806 12.069L19.1045 0H42.0299L30.806 12.069Z" fill="url(#paint1_linear_513_34)"/>
<path d="M0.477612 35L0 15.931L19.1045 35H0.477612Z" fill="url(#paint2_linear_513_34)"/>
<defs>
<linearGradient id="paint0_linear_513_34" x1="24" y1="-1.33893e-06" x2="-8.80027" y2="63.8296" gradientUnits="userSpaceOnUse">
<stop offset="0.0769231"/>
<stop offset="0.552885" stop-color="#1070FF"/>
</linearGradient>
<linearGradient id="paint1_linear_513_34" x1="24" y1="-1.33893e-06" x2="-8.80027" y2="63.8296" gradientUnits="userSpaceOnUse">
<stop offset="0.0769231"/>
<stop offset="0.552885" stop-color="#1070FF"/>
</linearGradient>
<linearGradient id="paint2_linear_513_34" x1="24" y1="-1.33893e-06" x2="-8.80027" y2="63.8296" gradientUnits="userSpaceOnUse">
<stop offset="0.0769231"/>
<stop offset="0.552885" stop-color="#1070FF"/>
</linearGradient>
</defs>
</svg>
