<svg width="134" height="98" viewBox="0 0 134 98" fill="none" xmlns="http://www.w3.org/2000/svg">
<path d="M0.666667 13.5172V0H44.6667V44.9891C44.6667 45.503 45.0561 45.9332 45.5675 45.9841L83.5128 49.7659C85.1212 49.9262 86.6246 50.6382 87.7677 51.7809L134 98H88.4677C86.8868 98 85.3698 97.3761 84.2464 96.2638L0.666667 13.5172Z" fill="url(#paint0_linear_513_30)"/>
<path d="M86 33.7931L53.3333 0H117.333L86 33.7931Z" fill="url(#paint1_linear_513_30)"/>
<path d="M1.33333 98L0 44.6069L53.3333 98H1.33333Z" fill="url(#paint2_linear_513_30)"/>
<defs>
<linearGradient id="paint0_linear_513_30" x1="67" y1="-3.74901e-06" x2="-25" y2="178.5" gradientUnits="userSpaceOnUse">
<stop offset="0.0769231"/>
<stop offset="0.552885" stop-color="#1070FF"/>
</linearGradient>
<linearGradient id="paint1_linear_513_30" x1="67" y1="-3.74901e-06" x2="-25" y2="178.5" gradientUnits="userSpaceOnUse">
<stop offset="0.0769231"/>
<stop offset="0.552885" stop-color="#1070FF"/>
</linearGradient>
<linearGradient id="paint2_linear_513_30" x1="67" y1="-3.74901e-06" x2="-25" y2="178.5" gradientUnits="userSpaceOnUse">
<stop offset="0.0769231"/>
<stop offset="0.552885" stop-color="#1070FF"/>
</linearGradient>
</defs>
</svg>
